<?xml version="1.0" encoding="UTF-8"?>
<svg version="1.1" xmlns="http://www.w3.org/2000/svg" width="500" height="500">
<path d="M0 0 C23.265 -0.04125 46.53 -0.0825 70.5 -0.125 C77.81994141 -0.14320801 85.13988281 -0.16141602 92.68164062 -0.18017578 C101.68652344 -0.18920898 101.68652344 -0.18920898 105.91491699 -0.19088745 C108.84007868 -0.19273522 111.76516624 -0.20016741 114.69030762 -0.21115112 C118.44154381 -0.22504639 122.19267491 -0.22895016 125.94393444 -0.22614455 C127.94324065 -0.22700214 129.94253571 -0.23763595 131.94181061 -0.2488575 C143.93136699 -0.22184354 156.21420378 0.59825092 167.6875 4.3125 C168.39189209 4.53268799 169.09628418 4.75287598 169.82202148 4.97973633 C171.88750276 5.63577531 173.94387215 6.3153084 176 7 C177.68222656 7.53753906 177.68222656 7.53753906 179.3984375 8.0859375 C191.61990583 12.34081907 202.25021218 19.73418777 212.5 27.5 C213.33724609 28.13168091 213.33724609 28.13168091 214.19140625 28.77612305 C215.50237254 29.79979158 216.7577817 30.89391521 218 32 C218 32.66 218 33.32 218 34 C218.66 34 219.32 34 220 34 C220 34.66 220 35.32 220 36 C220.66 36 221.32 36 222 36 C222 36.66 222 37.32 222 38 C222.66 38 223.32 38 224 38 C228 42.47058824 228 42.47058824 228 45 C228.66 45 229.32 45 230 45 C241.17450102 58.9896157 249.79982512 76.60980225 254 94 C254.21011719 94.83015625 254.42023438 95.6603125 254.63671875 96.515625 C262.23795243 129.93948941 255.07254925 165.24475063 237.01757812 193.94458008 C229.60448303 205.40602567 229.60448303 205.40602567 226 209 C225.34 209 224.68 209 224 209 C224 209.66 224 210.32 224 211 C223.34 211 222.68 211 222 211 C221.7628125 211.57234375 221.525625 212.1446875 221.28125 212.734375 C219.72406762 215.4879292 217.87507203 217.16795634 215.5 219.25 C214.7059375 219.95640625 213.911875 220.6628125 213.09375 221.390625 C211 223 211 223 209 223 C209 223.66 209 224.32 209 225 C206.9460098 226.51922352 204.91056203 227.89698587 202.75 229.25 C202.11610352 229.65114014 201.48220703 230.05228027 200.82910156 230.46557617 C195.07597979 234.05157374 189.16886777 237.18415446 183 240 C182.2059375 240.36738281 181.411875 240.73476563 180.59375 241.11328125 C175.50227547 243.31110109 170.29863912 244.81671176 164.9375 246.1875 C164.2887793 246.35459473 163.64005859 246.52168945 162.97167969 246.69384766 C154.33916355 248.79886352 145.77532653 249.14841812 136.91918945 249.15771484 C135.84796341 249.16279556 134.77673737 249.16787628 133.67304993 249.17311096 C131.36017468 249.18376122 129.04728948 249.19240206 126.7343998 249.19923019 C123.06264141 249.21110122 119.39099636 249.23057498 115.71928406 249.25234985 C105.28400489 249.31368887 94.84873905 249.36792399 84.41333008 249.40136719 C78.01618282 249.42241353 71.61924586 249.45779307 65.22221947 249.50212479 C62.79719722 249.51620205 60.37213781 249.52498833 57.9470768 249.52817917 C34.97888254 249.43581053 34.97888254 249.43581053 13.5 256.875 C12.8503125 257.20113281 12.200625 257.52726562 11.53125 257.86328125 C6.89010612 260.2680675 1.40576537 263.18846926 -1 268 C-1.99 267.67 -2.98 267.34 -4 267 C-2.08676121 241.42301823 5.29742744 217.86923129 22 198 C22.66 198 23.32 198 24 198 C24 197.34 24 196.68 24 196 C24.66 196 25.32 196 26 196 C26.268125 195.401875 26.53625 194.80375 26.8125 194.1875 C27.99917406 192.00152146 29.09599113 190.58667406 31 189 C31.66 189 32.32 189 33 189 C33 188.34 33 187.68 33 187 C53.32252489 169.59783794 79.5440066 160.79150629 106.0625 160.65625 C107.17447754 160.6416272 108.28645508 160.62700439 109.43212891 160.61193848 C112.95471653 160.56592625 116.47725473 160.53150068 120 160.5 C150.12127782 160.28764356 150.12127782 160.28764356 179.75 155.3125 C181.32720825 154.92167236 181.32720825 154.92167236 182.9362793 154.52294922 C203.82039901 149.12141454 224.99793907 138.17806216 236.5625 119.25 C241.16519842 111.37097216 245 103.2538673 245 94 C244.58041016 95.10794922 244.58041016 95.10794922 244.15234375 96.23828125 C240.35476686 105.84822663 235.85320954 115.05995436 228 122 C227.00806641 122.99580078 227.00806641 122.99580078 225.99609375 124.01171875 C216.38924469 133.33368596 204.68596968 138.9972483 192 143 C190.2984375 143.5878125 190.2984375 143.5878125 188.5625 144.1875 C183.42067653 145.36019658 178.25521613 145.67208832 173 146 C174.14489287 143.01510072 175.34779624 140.23646248 177 137.5 C182.8256626 127.45127343 183.5666708 115.44677532 180.6875 104.25 C176.06888178 89.13452219 167.69951507 79.84385994 153.90625 72.26171875 C147.81713964 69.61819369 142.08231629 68.75086954 135.48242188 68.68115234 C134.76778023 68.67099909 134.05313858 68.66084583 133.31684113 68.6503849 C131.03414835 68.62007565 128.75157805 68.602688 126.46875 68.5859375 C125.04719 68.56897547 123.62563996 68.55115585 122.20410156 68.5324707 C116.96951522 68.46961733 111.73474101 68.42328337 106.5 68.375 C88.9275 68.189375 88.9275 68.189375 71 68 C71 95.72 71 123.44 71 152 C67.37 152.99 63.74 153.98 60 155 C56.22419792 156.45148969 52.63422283 158.2257331 49 160 C48.01902344 160.45375 47.03804687 160.9075 46.02734375 161.375 C28.91370933 169.50121609 13.90089112 182.40525037 4.0625 198.6875 C3.381875 199.780625 2.70125 200.87375 2 202 C1.34 202 0.68 202 0 202 C0 135.34 0 68.68 0 0 Z " fill="#2795E2" transform="translate(127,113)"/>
<path d="M0 0 C0.66 0 1.32 0 2 0 C3.4375 1.828125 3.4375 1.828125 5 4.25 C5.515625 5.03890625 6.03125 5.8278125 6.5625 6.640625 C8 9 8 9 9 11.234375 C9.93890195 13.35165461 9.93890195 13.35165461 13 14 C13 14.66 13 15.32 13 16 C13.99 16.33 14.98 16.66 16 17 C16 17.66 16 18.32 16 19 C16.56074219 19.25910156 17.12148437 19.51820313 17.69921875 19.78515625 C20.2574341 21.1359287 22.47896571 22.72869143 24.8125 24.4375 C28.77123096 27.25259757 32.45349026 29.31976814 37 31 C37 31.66 37 32.32 37 33 C39.97 33.66 42.94 34.32 46 35 C46 35.66 46 36.32 46 37 C47.00417969 37.13535156 48.00835937 37.27070313 49.04296875 37.41015625 C52.82928265 37.95269279 56.56649176 38.6609376 60.3125 39.4375 C61.52550781 39.68371094 62.73851562 39.92992187 63.98828125 40.18359375 C67 41 67 41 69 43 C69.18799291 45.68063427 69.25181991 48.25709458 69.22705078 50.93798828 C69.22734283 51.75758026 69.22763489 52.57717224 69.22793579 53.42160034 C69.22653944 56.13794443 69.21096401 58.85401618 69.1953125 61.5703125 C69.19158345 63.45075328 69.18873597 65.33119599 69.18673706 67.2116394 C69.17909207 72.16665998 69.15943619 77.12156374 69.1373291 82.07653809 C69.11688928 87.1304364 69.10773934 92.18435354 69.09765625 97.23828125 C69.07619109 107.15890555 69.04204474 117.07944307 69 127 C67.86213295 127.3043824 67.86213295 127.3043824 66.70127869 127.61491394 C65.70794022 127.88274185 64.71460175 128.15056976 63.69116211 128.42651367 C62.70570908 128.69131027 61.72025604 128.95610687 60.7049408 129.22892761 C55.86840929 130.6076328 51.50545687 132.80038721 47 135 C46.01902344 135.45375 45.03804687 135.9075 44.02734375 136.375 C29.18214458 143.42407522 16.79667505 153.65520429 7.10546875 166.91015625 C5 169 5 169 2.3684082 169.13061523 C1.5868335 169.08751221 0.80525879 169.04440918 0 169 C-0.13289769 157.88723189 -0.26340223 146.7744382 -0.39115143 135.66160965 C-0.45059023 130.49704904 -0.51074286 125.33249917 -0.57275391 120.16796875 C-1.39107106 51.86080872 -1.39107106 51.86080872 -0.5 19.25 C-0.45140645 17.34245848 -0.40323092 15.43490627 -0.35546875 13.52734375 C-0.24171036 9.01809329 -0.12260564 4.5090182 0 0 Z " fill="#0B65D0" transform="translate(129,138)"/>
<path d="M0 0 C13.84550405 17.96078055 13.383349 48.28032704 11.45703125 69.546875 C8.34807189 93.03679018 -1.93496792 119.9847202 -19 137 C-19.66 137 -20.32 137 -21 137 C-21 137.66 -21 138.32 -21 139 C-21.66 139 -22.32 139 -23 139 C-23.2475 139.598125 -23.495 140.19625 -23.75 140.8125 C-25.16370012 143.28647521 -26.65055383 144.43370255 -29 146 C-29 144.35 -29 142.7 -29 141 C-28.34 141 -27.68 141 -27 141 C-26.525625 140.175 -26.05125 139.35 -25.5625 138.5 C-25.046875 137.675 -24.53125 136.85 -24 136 C-23.01 136 -22.02 136 -21 136 C-20.34 133.03 -19.68 130.06 -19 127 C-18.01 127.33 -17.02 127.66 -16 128 C-16 127.34 -16 126.68 -16 126 C-15.34 126 -14.68 126 -14 126 C-13.67 125.01 -13.34 124.02 -13 123 C-12.34 123 -11.68 123 -11 123 C-10.87753906 122.42765625 -10.75507813 121.8553125 -10.62890625 121.265625 C-9.97237132 118.90046809 -9.06276488 116.92793203 -7.9375 114.75 C-7.57527344 114.04359375 -7.21304688 113.3371875 -6.83984375 112.609375 C-6.56269531 112.07828125 -6.28554688 111.5471875 -6 111 C-5.34 111 -4.68 111 -4 111 C-4.20625 110.21625 -4.4125 109.4325 -4.625 108.625 C-4.74875 107.75875 -4.8725 106.8925 -5 106 C-4.34 105.34 -3.68 104.68 -3 104 C-2.19916172 101.94968628 -1.54290981 99.87559499 -0.87890625 97.77734375 C-0.58886719 97.19082031 -0.29882812 96.60429687 0 96 C0.99 95.67 1.98 95.34 3 95 C3.06058594 94.41992188 3.12117187 93.83984375 3.18359375 93.2421875 C3.56451382 89.69084042 3.96231 86.19975698 4.625 82.6875 C4.99101053 80.06442457 4.85759249 78.47748941 4 76 C4.66 76 5.32 76 6 76 C7.65619277 73.09244677 8.24715763 71.02816577 8.22705078 67.69042969 C8.22689972 66.84986023 8.22674866 66.00929077 8.22659302 65.14324951 C8.21627045 64.24519592 8.20594788 63.34714233 8.1953125 62.421875 C8.1924826 61.4953009 8.18965271 60.56872681 8.18673706 59.61407471 C8.17555611 56.65925091 8.15045527 53.70473195 8.125 50.75 C8.11496751 48.74479605 8.10584213 46.73958734 8.09765625 44.734375 C8.07562358 39.82279949 8.04110795 34.91145141 8 30 C5.03 30.495 5.03 30.495 2 31 C1.814375 32.2684375 1.814375 32.2684375 1.625 33.5625 C-0.11111111 43.11111111 -0.11111111 43.11111111 -3 46 C-3.268125 46.969375 -3.53625 47.93875 -3.8125 48.9375 C-5 52 -5 52 -7.3125 53.375 C-10.69757507 55.42178958 -11.84743676 57.73381848 -13.69140625 61.16015625 C-15.22960184 63.32281334 -16.62183588 63.91020992 -19 65 C-20.1500831 66.96672915 -20.1500831 66.96672915 -21 69 C-21.66 69.66 -22.32 70.32 -23 71 C-23 70.34 -23 69.68 -23 69 C-25.55503957 70.28288757 -25.55503957 70.28288757 -28 72 C-28 72.99 -28 73.98 -28 75 C-28.639375 75.12375 -29.27875 75.2475 -29.9375 75.375 C-30.618125 75.58125 -31.29875 75.7875 -32 76 C-32.33 76.66 -32.66 77.32 -33 78 C-35.31 77.67 -37.62 77.34 -40 77 C-40.33 77.66 -40.66 78.32 -41 79 C-41.7734375 79.99 -41.7734375 79.99 -42.5625 81 C-44.19454535 82.86017053 -44.19454535 82.86017053 -44 85 C-46.97 84.01 -46.97 84.01 -50 83 C-50.33 83.99 -50.66 84.98 -51 86 C-52.30904297 86.13728516 -52.30904297 86.13728516 -53.64453125 86.27734375 C-57.40145779 87.08646064 -59.52429358 88.40442459 -62.6875 90.5625 C-70.2867683 95.51785855 -78.48060979 98.7817448 -86.87744141 102.13769531 C-89.53071169 103.21560544 -92.13535611 104.3944985 -94.75 105.5625 C-103.32782312 109.1406088 -112.35800501 111.54381408 -121.25732422 114.18310547 C-144.67721673 121.10682834 -144.67721673 121.10682834 -167.421875 129.921875 C-171.78328867 131.7457389 -175.23288728 133 -180 133 C-180 133.66 -180 134.32 -180 135 C-181.50240234 135.79664063 -181.50240234 135.79664063 -183.03515625 136.609375 C-184.37763436 137.32285987 -185.72008057 138.03640475 -187.0625 138.75 C-188.04766602 139.27207031 -188.04766602 139.27207031 -189.05273438 139.8046875 C-192.34945422 141.55860742 -195.62208443 143.34146199 -198.859375 145.203125 C-202 147 -202 147 -204.1875 148 C-206.15147298 148.96165944 -206.15147298 148.96165944 -207.8125 150.9375 C-210.57674697 153.54379 -213.52476531 154.5106137 -217 156 C-219.16666667 157.83333333 -219.16666667 157.83333333 -221 160 C-222.175625 161.11375 -222.175625 161.11375 -223.375 162.25 C-226.12930443 165.13546178 -228.38349904 168.16483636 -230.66796875 171.42578125 C-231.10753906 171.94527344 -231.54710937 172.46476563 -232 173 C-232.66 173 -233.32 173 -234 173 C-234.36738281 173.79664063 -234.36738281 173.79664063 -234.7421875 174.609375 C-236.33580943 177.6382465 -238.21259634 180.41223973 -240.125 183.25 C-240.84945312 184.32765625 -241.57390625 185.4053125 -242.3203125 186.515625 C-242.87460938 187.33546875 -243.42890625 188.1553125 -244 189 C-243.34 189.66 -242.68 190.32 -242 191 C-243.32 192.65 -244.64 194.3 -246 196 C-246.99 195.67 -247.98 195.34 -249 195 C-247.08676121 169.42301823 -239.70257256 145.86923129 -223 126 C-222.34 126 -221.68 126 -221 126 C-221 125.34 -221 124.68 -221 124 C-220.34 124 -219.68 124 -219 124 C-218.731875 123.401875 -218.46375 122.80375 -218.1875 122.1875 C-217.00082594 120.00152146 -215.90400887 118.58667406 -214 117 C-213.34 117 -212.68 117 -212 117 C-212 116.34 -212 115.68 -212 115 C-191.67747511 97.59783794 -165.4559934 88.79150629 -138.9375 88.65625 C-137.82552246 88.6416272 -136.71354492 88.62700439 -135.56787109 88.61193848 C-132.04528347 88.56592625 -128.52274527 88.53150068 -125 88.5 C-94.87872218 88.28764356 -94.87872218 88.28764356 -65.25 83.3125 C-64.19852783 83.05194824 -63.14705566 82.79139648 -62.0637207 82.52294922 C-41.17960099 77.12141454 -20.00206093 66.17806216 -8.4375 47.25 C-1.5907604 35.52955974 0.31585677 25.85997416 0.125 12.5 C0.11597656 11.29601562 0.10695313 10.09203125 0.09765625 8.8515625 C0.07423775 5.9008321 0.04143993 2.95052311 0 0 Z " fill="#3AB0EB" transform="translate(372,185)"/>
<path d="M0 0 C13.84550405 17.96078055 13.383349 48.28032704 11.45703125 69.546875 C8.34807189 93.03679018 -1.93496792 119.9847202 -19 137 C-19.66 137 -20.32 137 -21 137 C-21 137.66 -21 138.32 -21 139 C-21.66 139 -22.32 139 -23 139 C-23.2475 139.598125 -23.495 140.19625 -23.75 140.8125 C-25.16370012 143.28647521 -26.65055383 144.43370255 -29 146 C-29 144.35 -29 142.7 -29 141 C-28.34 141 -27.68 141 -27 141 C-26.525625 140.175 -26.05125 139.35 -25.5625 138.5 C-25.046875 137.675 -24.53125 136.85 -24 136 C-23.01 136 -22.02 136 -21 136 C-20.34 133.03 -19.68 130.06 -19 127 C-18.01 127.33 -17.02 127.66 -16 128 C-16 127.34 -16 126.68 -16 126 C-15.34 126 -14.68 126 -14 126 C-13.67 125.01 -13.34 124.02 -13 123 C-12.34 123 -11.68 123 -11 123 C-10.87753906 122.42765625 -10.75507813 121.8553125 -10.62890625 121.265625 C-9.97237132 118.90046809 -9.06276488 116.92793203 -7.9375 114.75 C-7.57527344 114.04359375 -7.21304688 113.3371875 -6.83984375 112.609375 C-6.56269531 112.07828125 -6.28554688 111.5471875 -6 111 C-5.34 111 -4.68 111 -4 111 C-4.20625 110.21625 -4.4125 109.4325 -4.625 108.625 C-4.74875 107.75875 -4.8725 106.8925 -5 106 C-4.34 105.34 -3.68 104.68 -3 104 C-2.19916172 101.94968628 -1.54290981 99.87559499 -0.87890625 97.77734375 C-0.58886719 97.19082031 -0.29882812 96.60429687 0 96 C0.99 95.67 1.98 95.34 3 95 C3.06058594 94.41992188 3.12117187 93.83984375 3.18359375 93.2421875 C3.56451382 89.69084042 3.96231 86.19975698 4.625 82.6875 C4.99101053 80.06442457 4.85759249 78.47748941 4 76 C4.66 76 5.32 76 6 76 C7.65619277 73.09244677 8.24715763 71.02816577 8.22705078 67.69042969 C8.22689972 66.84986023 8.22674866 66.00929077 8.22659302 65.14324951 C8.21627045 64.24519592 8.20594788 63.34714233 8.1953125 62.421875 C8.1924826 61.4953009 8.18965271 60.56872681 8.18673706 59.61407471 C8.17555611 56.65925091 8.15045527 53.70473195 8.125 50.75 C8.11496751 48.74479605 8.10584213 46.73958734 8.09765625 44.734375 C8.07562358 39.82279949 8.04110795 34.91145141 8 30 C5.03 30.495 5.03 30.495 2 31 C1.814375 32.2684375 1.814375 32.2684375 1.625 33.5625 C-0.11111111 43.11111111 -0.11111111 43.11111111 -3 46 C-3.268125 46.969375 -3.53625 47.93875 -3.8125 48.9375 C-5 52 -5 52 -7.3125 53.375 C-10.69757507 55.42178958 -11.84743676 57.73381848 -13.69140625 61.16015625 C-15.22960184 63.32281334 -16.62183588 63.91020992 -19 65 C-20.1500831 66.96672915 -20.1500831 66.96672915 -21 69 C-21.66 69.66 -22.32 70.32 -23 71 C-23 70.34 -23 69.68 -23 69 C-25.55503957 70.28288757 -25.55503957 70.28288757 -28 72 C-28 72.99 -28 73.98 -28 75 C-28.639375 75.12375 -29.27875 75.2475 -29.9375 75.375 C-30.618125 75.58125 -31.29875 75.7875 -32 76 C-32.33 76.66 -32.66 77.32 -33 78 C-35.31 77.67 -37.62 77.34 -40 77 C-40.33 77.66 -40.66 78.32 -41 79 C-41.7734375 79.99 -41.7734375 79.99 -42.5625 81 C-44.19454535 82.86017053 -44.19454535 82.86017053 -44 85 C-46.97 84.01 -46.97 84.01 -50 83 C-50.495 84.485 -50.495 84.485 -51 86 C-52.3921875 86.2165625 -52.3921875 86.2165625 -53.8125 86.4375 C-57.00725111 86.92100111 -57.00725111 86.92100111 -60 88 C-60 87.34 -60 86.68 -60 86 C-63.41937757 86.41779456 -66.83470408 86.86264778 -70.25 87.3125 C-71.21808594 87.43044922 -72.18617188 87.54839844 -73.18359375 87.66992188 C-74.58544922 87.85844727 -74.58544922 87.85844727 -76.015625 88.05078125 C-76.87446289 88.16075439 -77.73330078 88.27072754 -78.61816406 88.3840332 C-81.32297248 89.08352394 -82.81653435 90.30352996 -85 92 C-87.25 91.6875 -87.25 91.6875 -89 91 C-89.33 91.66 -89.66 92.32 -90 93 C-90 92.01 -90 91.02 -90 90 C-97.44160374 90.06139111 -104.88286875 90.13862536 -112.32409763 90.23571491 C-115.77992452 90.28031496 -119.23563634 90.31959312 -122.69165039 90.34643555 C-126.67098813 90.37758136 -130.64983649 90.43236658 -134.62890625 90.48828125 C-135.86145645 90.49467117 -137.09400665 90.5010611 -138.36390686 90.50764465 C-144.69973811 90.61569597 -149.39223707 90.99507819 -155 94 C-159.11901835 95.13516254 -163.05212353 95.1023166 -167.3125 95.0625 C-168.56675781 95.05347656 -169.82101563 95.04445313 -171.11328125 95.03515625 C-172.54220703 95.01775391 -172.54220703 95.01775391 -174 95 C-160.87408771 86.24939181 -139.52424944 88.40054782 -124.5 88.375 C-94.63110945 88.25073987 -94.63110945 88.25073987 -65.25 83.3125 C-64.19852783 83.05194824 -63.14705566 82.79139648 -62.0637207 82.52294922 C-41.17960099 77.12141454 -20.00206093 66.17806216 -8.4375 47.25 C-1.5907604 35.52955974 0.31585677 25.85997416 0.125 12.5 C0.11597656 11.29601562 0.10695313 10.09203125 0.09765625 8.8515625 C0.07423775 5.9008321 0.04143993 2.95052311 0 0 Z " fill="#78D3EB" transform="translate(372,185)"/>
<path d="M0 0 C18.36854455 -0.04645757 36.7370687 -0.08207057 55.10565948 -0.10362434 C63.63605255 -0.11390171 72.16640827 -0.12789367 80.69677734 -0.15087891 C88.13880901 -0.1709219 95.58081359 -0.1837421 103.02287149 -0.18817699 C106.95704918 -0.19076605 110.89114945 -0.19677605 114.82530212 -0.21146011 C118.54185329 -0.22521723 122.25829647 -0.2291868 125.97487068 -0.22621536 C127.96136491 -0.22701255 129.94784788 -0.23767792 131.93431091 -0.24884033 C143.72659764 -0.22237904 155.63318939 0.68468024 167 4 C167 4.33 167 4.66 167 5 C166.030625 4.979375 165.06125 4.95875 164.0625 4.9375 C161.12534105 4.64381501 161.12534105 4.64381501 160 6 C160.99 6.33 161.98 6.66 163 7 C161.02 7 159.04 7 157 7 C157 6.34 157 5.68 157 5 C151.72 4.01 146.44 3.02 141 2 C141 2.66 141 3.32 141 4 C140.01 3.67 139.02 3.34 138 3 C136.17318393 2.9092687 134.34318142 2.87804719 132.51411438 2.87974548 C131.37407959 2.87837082 130.2340448 2.87699615 129.0594635 2.87557983 C127.80789963 2.87917511 126.55633575 2.88277039 125.2668457 2.88647461 C123.9496756 2.88632858 122.63250549 2.88618256 121.27542114 2.8860321 C117.66206406 2.88574485 114.04874009 2.89163005 110.43539071 2.89860606 C106.65974358 2.90485147 102.88409571 2.90544434 99.10844421 2.90663147 C91.95805299 2.90974127 84.80767704 2.91794995 77.65729254 2.92798096 C69.51711394 2.93915297 61.37693461 2.94465529 53.23675025 2.94967639 C36.49115764 2.96013284 19.74558137 2.97792663 3 3 C2.67 8.61 2.34 14.22 2 20 C1.34 19.67 0.68 19.34 0 19 C0 12.73 0 6.46 0 0 Z " fill="#85D3E9" transform="translate(127,113)"/>
<path d="M0 0 C0.33 0 0.66 0 1 0 C1.17801561 12.29152023 1.34353044 24.58318697 1.5 36.875 C1.51187725 37.80752468 1.5237545 38.74004936 1.53599167 39.70083237 C1.93820801 71.57196067 2.08988867 103.43893546 2.0625 135.3125 C2.06164398 136.315942 2.06078796 137.319384 2.05990601 138.35323334 C2.04869465 150.56884114 2.02889517 162.78442154 2 175 C3.32 175 4.64 175 6 175 C4.87548273 177.9719385 3.77706209 180.33440687 2 183 C1.34 183 0.68 183 0 183 C0 122.61 0 62.22 0 0 Z " fill="#4B81C3" transform="translate(127,132)"/>
<path d="M0 0 C0.91285263 -0.00137466 1.82570526 -0.00274933 2.76622009 -0.00416565 C3.76531403 -0.00057037 4.76440796 0.0030249 5.79377747 0.00672913 C6.84760117 0.0065831 7.90142487 0.00643707 8.98718262 0.00628662 C12.47717839 0.00698437 15.96712107 0.01477036 19.45710754 0.02259827 C21.87420625 0.02446294 24.29130533 0.02588661 26.70840454 0.02688599 C33.07555685 0.03070731 39.4426864 0.04053434 45.80982971 0.05158997 C52.30488273 0.06181234 58.79993942 0.06638538 65.29499817 0.07142639 C78.04305476 0.08215692 90.79109557 0.09903701 103.53913879 0.12025452 C103.53913879 0.78025452 103.53913879 1.44025452 103.53913879 2.12025452 C47.60413879 2.61525452 47.60413879 2.61525452 -9.46086121 3.12025452 C-6.50632671 0.16572002 -3.99268444 -0.00463726 0 0 Z " fill="#1261BA" transform="translate(161.4608612060547,359.87974548339844)"/>
<path d="M0 0 C0.66 0.33 1.32 0.66 2 1 C0.96533422 14.88454721 -8.75825219 27.33420872 -17 38 C-17.52851563 38.75796875 -18.05703125 39.5159375 -18.6015625 40.296875 C-19.06304687 40.85890625 -19.52453125 41.4209375 -20 42 C-20.66 42 -21.32 42 -22 42 C-22 42.66 -22 43.32 -22 44 C-22.66 44 -23.32 44 -24 44 C-24.2475 44.598125 -24.495 45.19625 -24.75 45.8125 C-26.16370012 48.28647521 -27.65055383 49.43370255 -30 51 C-30 49.35 -30 47.7 -30 46 C-29.34 46 -28.68 46 -28 46 C-27.525625 45.175 -27.05125 44.35 -26.5625 43.5 C-26.046875 42.675 -25.53125 41.85 -25 41 C-24.01 41 -23.02 41 -22 41 C-21.34 38.03 -20.68 35.06 -20 32 C-19.01 32.33 -18.02 32.66 -17 33 C-17 32.34 -17 31.68 -17 31 C-16.34 31 -15.68 31 -15 31 C-14.67 30.01 -14.34 29.02 -14 28 C-13.34 28 -12.68 28 -12 28 C-11.87753906 27.42765625 -11.75507813 26.8553125 -11.62890625 26.265625 C-10.97237132 23.90046809 -10.06276488 21.92793203 -8.9375 19.75 C-8.57527344 19.04359375 -8.21304687 18.3371875 -7.83984375 17.609375 C-7.56269531 17.07828125 -7.28554688 16.5471875 -7 16 C-6.34 16 -5.68 16 -5 16 C-5.20625 15.21625 -5.4125 14.4325 -5.625 13.625 C-5.74875 12.75875 -5.8725 11.8925 -6 11 C-5.34 10.34 -4.68 9.68 -4 9 C-3.4297902 7.66587276 -2.91269425 6.30834833 -2.4375 4.9375 C-1.09722222 1.09722222 -1.09722222 1.09722222 0 0 Z " fill="#5CBFE5" transform="translate(373,280)"/>
<path d="M0 0 C0.495 1.485 0.495 1.485 1 3 C0.34 3.66 -0.32 4.32 -1 5 C-1.99 5 -2.98 5 -4 5 C-4.33 5.66 -4.66 6.32 -5 7 C-7.31 6.67 -9.62 6.34 -12 6 C-12.33 6.66 -12.66 7.32 -13 8 C-13.515625 8.66 -14.03125 9.32 -14.5625 10 C-16.19454535 11.86017053 -16.19454535 11.86017053 -16 14 C-17.98 13.34 -19.96 12.68 -22 12 C-22.33 12.99 -22.66 13.98 -23 15 C-23.928125 15.144375 -24.85625 15.28875 -25.8125 15.4375 C-29.00725111 15.92100111 -29.00725111 15.92100111 -32 17 C-32 16.34 -32 15.68 -32 15 C-35.63 15.33 -39.26 15.66 -43 16 C-41.68 15.34 -40.36 14.68 -39 14 C-38.34 13.34 -37.68 12.68 -37 12 C-34.93398575 11.35801817 -32.84607002 10.78576678 -30.75 10.25 C-20.87618263 7.53954033 -9.755752 -0.43358898 0 0 Z " fill="#66CAE9" transform="translate(344,256)"/>
<path d="M0 0 C0.33 0.66 0.66 1.32 1 2 C2.32 2 3.64 2 5 2 C5.33 1.34 5.66 0.68 6 0 C6.33 0.33 6.66 0.66 7 1 C8.90674416 1.0887013 10.81680197 1.10687657 12.72558594 1.09765625 C13.95065857 1.09435303 15.1757312 1.0910498 16.43792725 1.08764648 C17.09697807 1.08352753 17.7560289 1.07940857 18.43505096 1.07516479 C20.49481746 1.06243547 22.55451976 1.05589369 24.61431885 1.05102539 C29.73428641 1.03762893 34.85419363 1.01350952 39.97412109 0.98962402 C44.29249989 0.96986518 48.61085553 0.95423068 52.92926788 0.94406128 C54.95498278 0.93759384 56.98060281 0.92508129 59.00628662 0.91235352 C60.86280853 0.90739868 60.86280853 0.90739868 62.75683594 0.90234375 C64.38779205 0.89448853 64.38779205 0.89448853 66.05169678 0.88647461 C68.81693966 0.9929512 71.31055145 1.37041057 74 2 C73.67 2.66 73.34 3.32 73 4 C48.25 4 23.5 4 -2 4 C-2.33 3.01 -2.66 2.02 -3 1 C-2.01 0.67 -1.02 0.34 0 0 Z " fill="#3887C4" transform="translate(199,177)"/>
<path d="M0 0 C2.46234985 2.98999625 3.8405175 5.79139023 5.125 9.4375 C5.45757812 10.36433594 5.79015625 11.29117188 6.1328125 12.24609375 C7.53234644 16.69055963 8.12461154 20.65413445 8.0625 25.3125 C8.05347656 26.19550781 8.04445313 27.07851562 8.03515625 27.98828125 C8.02355469 28.65214844 8.01195312 29.31601563 8 30 C5.69 30.33 3.38 30.66 1 31 C0.29798179 20.64523146 -0.14809693 10.38324014 0 0 Z " fill="#58CCEA" transform="translate(372,185)"/>
<path d="M0 0 C0.66 0 1.32 0 2 0 C1.835 0.598125 1.67 1.19625 1.5 1.8125 C0.8885876 4.11344336 0.8885876 4.11344336 1 7 C1.886875 6.34 2.77375 5.68 3.6875 5 C6.98111986 3.01139933 8.28251873 2.56264926 12 3 C12.33 3.99 12.66 4.98 13 6 C12.29875 6.37511719 11.5975 6.75023437 10.875 7.13671875 C5.70213899 9.92697122 0.66866428 12.74309418 -4.1484375 16.1171875 C-6.5199835 17.24792462 -8.40619679 17.15152802 -11 17 C-7.87557887 11.02765519 -4.61793936 4.97004031 0 0 Z " fill="#4E7FCC" transform="translate(138,358)"/>
<path d="M0 0 C0.33 0 0.66 0 1 0 C1 27.72 1 55.44 1 84 C-2.9118621 84.97796553 -5.99242418 85.2226431 -10 85 C-10.66 84.34 -11.32 83.68 -12 83 C-10.7934375 83.0309375 -10.7934375 83.0309375 -9.5625 83.0625 C-7.06645115 83.29633621 -7.06645115 83.29633621 -6 82 C-4.02 82 -2.04 82 0 82 C0 54.94 0 27.88 0 0 Z " fill="#2B6CB6" transform="translate(197,181)"/>
<path d="M0 0 C1.9375 0.5 1.9375 0.5 4 2 C4.6875 5.9375 4.6875 5.9375 4.82421875 8.02734375 C4.94239909 10.21182596 4.94239909 10.21182596 6 13 C4.4176994 13.33820166 2.83410625 13.67035939 1.25 14 C-0.07257813 14.2784375 -0.07257813 14.2784375 -1.421875 14.5625 C-4 15 -4 15 -8 15 C-6.66786942 11.4134946 -5.23083941 8.12317517 -3 5 C-2.01 5 -1.02 5 0 5 C0 3.35 0 1.7 0 0 Z " fill="#085EC6" transform="translate(308,244)"/>
<path d="M0 0 C1.32 0.33 2.64 0.66 4 1 C2.892663 4.322011 2.21551324 4.83964446 -0.4375 6.9375 C-6.0345512 11.65080628 -10.44223596 17.31213463 -15 23 C-17 20 -17 20 -17 17 C-16.195625 16.7525 -15.39125 16.505 -14.5625 16.25 C-13.716875 15.8375 -12.87125 15.425 -12 15 C-11.3185177 13.10820797 -11.3185177 13.10820797 -11 11 C-9.10703624 7.98846674 -8.45508381 7.1516946 -5 6 C-5 4.68 -5 3.36 -5 2 C-3.35 2 -1.7 2 0 2 C0 1.34 0 0.68 0 0 Z " fill="#2B68C2" transform="translate(149,284)"/>
<path d="M0 0 C0.66 0 1.32 0 2 0 C2 0.66 2 1.32 2 2 C2.66 2 3.32 2 4 2 C4 2.66 4 3.32 4 4 C4.66 4 5.32 4 6 4 C6.59723456 12.6172415 7.11364709 21.23664189 7.25 29.875 C7.28867187 31.82019531 7.28867187 31.82019531 7.328125 33.8046875 C7 37 7 37 4 40 C4 30.43 4 20.86 4 11 C3.34 10.67 2.68 10.34 2 10 C1.3671875 7.71484375 1.3671875 7.71484375 0.875 4.9375 C0.70742188 4.01839844 0.53984375 3.09929687 0.3671875 2.15234375 C0.24601562 1.44207031 0.12484375 0.73179687 0 0 Z " fill="#197CD6" transform="translate(306,204)"/>
<path d="M0 0 C0.99 0.33 1.98 0.66 3 1 C-0.70063694 8.13694268 -0.70063694 8.13694268 -5 10 C-6.1500831 11.96672915 -6.1500831 11.96672915 -7 14 C-7.66 14.66 -8.32 15.32 -9 16 C-9 15.34 -9 14.68 -9 14 C-9.7425 14.350625 -10.485 14.70125 -11.25 15.0625 C-14.21122875 16.0720098 -15.12062561 15.87980884 -18 15 C-17.11957031 14.33613281 -16.23914063 13.67226562 -15.33203125 12.98828125 C-14.1587036 12.09655224 -12.98553497 11.20461398 -11.8125 10.3125 C-10.9452832 9.65991211 -10.9452832 9.65991211 -10.06054688 8.99414062 C-6.42004107 6.21748365 -3.16585793 3.30894756 0 0 Z " fill="#6ED0ED" transform="translate(358,240)"/>
<path d="M0 0 C0.66 0.33 1.32 0.66 2 1 C1.67 1.66 1.34 2.32 1 3 C0.01 3 -0.98 3 -2 3 C-2 3.66 -2 4.32 -2 5 C-3.1446875 5.12375 -3.1446875 5.12375 -4.3125 5.25 C-7.10073783 5.72156599 -7.10073783 5.72156599 -8.3125 7.875 C-10.53955101 10.67943461 -12.74989936 11.10774504 -16.078125 12.20703125 C-18.23160517 12.95163803 -18.23160517 12.95163803 -20.1875 15.1875 C-22 17 -22 17 -24.75 17.25 C-25.4925 17.1675 -26.235 17.085 -27 17 C-20.09554999 9.14321206 -9.84917168 3.33516925 0 0 Z " fill="#6EBFE2" transform="translate(190,282)"/>
<path d="M0 0 C0.33 0 0.66 0 1 0 C2.24315739 10.45173065 -1.44145272 19.37285871 -5 29 C-5.33 29 -5.66 29 -6 29 C-5.62328092 24.16213393 -5.23373683 19.48545302 -3.875 14.8125 C-2.90491044 10.58568119 -3.13040105 8.17407497 -4 4 C-3.34 4 -2.68 4 -2 4 C-1.34 2.68 -0.68 1.36 0 0 Z " fill="#64C9EA" transform="translate(380,257)"/>
<path d="M0 0 C0.66 0.33 1.32 0.66 2 1 C1.84482717 8.13795017 -1.74209463 12.47472854 -6 18 C-8 15 -8 15 -8 12 C-7.34 12 -6.68 12 -6 12 C-5.90203125 11.38511719 -5.8040625 10.77023438 -5.703125 10.13671875 C-4.46655232 3.45283019 -4.46655232 3.45283019 -1.875 0.9375 C-0.946875 0.4734375 -0.946875 0.4734375 0 0 Z " fill="#2580D0" transform="translate(365,213)"/>
<path d="M0 0 C0.33 0 0.66 0 1 0 C1.25033746 7.51012394 1.25033746 7.51012394 0.00390625 9.94921875 C-1.22846507 12.4667088 -1.23377304 14.27349761 -1.1875 17.0625 C-1.18105469 17.91972656 -1.17460938 18.77695312 -1.16796875 19.66015625 C-0.92993754 22.97598631 -0.36679134 24.63320866 2 27 C0.68 28.65 -0.64 30.3 -2 32 C-2.99 31.67 -3.98 31.34 -5 31 C-4.21286715 20.47727657 -2.7454793 10.19749453 0 0 Z " fill="#60A0D5" transform="translate(128,349)"/>
<path d="M0 0 C0.66 0 1.32 0 2 0 C1.54961229 4.84166786 0.40027839 7.49668287 -3 11 C-3.66 11 -4.32 11 -5 11 C-5 11.66 -5 12.32 -5 13 C-5.66 13 -6.32 13 -7 13 C-7.2475 13.598125 -7.495 14.19625 -7.75 14.8125 C-9.16370012 17.28647521 -10.65055383 18.43370255 -13 20 C-13 18.35 -13 16.7 -13 15 C-12.34 15 -11.68 15 -11 15 C-10.525625 14.175 -10.05125 13.35 -9.5625 12.5 C-9.046875 11.675 -8.53125 10.85 -8 10 C-7.01 10 -6.02 10 -5 10 C-4.34 7.03 -3.68 4.06 -3 1 C-2.01 1.33 -1.02 1.66 0 2 C0 1.34 0 0.68 0 0 Z " fill="#67B4E1" transform="translate(356,311)"/>
<path d="M0 0 C1.05904289 0.00424484 1.05904289 0.00424484 2.13948059 0.00857544 C4.39133758 0.01975786 6.64279477 0.0448583 8.89453125 0.0703125 C10.42252029 0.08034483 11.95051558 0.08947024 13.47851562 0.09765625 C17.22150788 0.11969078 20.96420181 0.15420683 24.70703125 0.1953125 C24.70703125 0.5253125 24.70703125 0.8553125 24.70703125 1.1953125 C24.1337207 1.21513184 23.56041016 1.23495117 22.96972656 1.25537109 C8.28042901 1.73040147 8.28042901 1.73040147 -6.2109375 3.98828125 C-7.24154297 4.09076172 -7.24154297 4.09076172 -8.29296875 4.1953125 C-8.95296875 3.5353125 -9.61296875 2.8753125 -10.29296875 2.1953125 C-6.69852692 -0.20098205 -4.14435223 -0.06250081 0 0 Z " fill="#44BEEC" transform="translate(231.29296875,274.8046875)"/>
<path d="M0 0 C2.31 0 4.62 0 7 0 C6.67 0.66 6.34 1.32 6 2 C5.34 2 4.68 2 4 2 C3.67 2.99 3.34 3.98 3 5 C-0.75907641 6.62323754 -3.92086213 7.23994929 -8 7 C-8.33 6.01 -8.66 5.02 -9 4 C-7.875 2.4375 -7.875 2.4375 -6 1 C-2.8125 1.3125 -2.8125 1.3125 0 2 C0 1.34 0 0.68 0 0 Z " fill="#2470C3" transform="translate(324,248)"/>
<path d="M0 0 C5.94 0 11.88 0 18 0 C18 0.33 18 0.66 18 1 C13.05 1.33 8.1 1.66 3 2 C2.67 7.61 2.34 13.22 2 19 C1.34 18.67 0.68 18.34 0 18 C0 12.06 0 6.12 0 0 Z " fill="#48A5D5" transform="translate(127,114)"/>
<path d="M0 0 C1.65 0 3.3 0 5 0 C-1.60511414 5.28712118 -8.59482769 7.62260536 -17 7 C-17 6.01 -17 5.02 -17 4 C-10.25 1.875 -10.25 1.875 -8 3 C-6.00978479 2.90276549 -6.00978479 2.90276549 -3.875 2.5625 C-2.59625 2.376875 -1.3175 2.19125 0 2 C0 1.34 0 0.68 0 0 Z " fill="#3F90D7" transform="translate(309,350)"/>
<path d="M0 0 C0.66 0 1.32 0 2 0 C1.21302675 3.41021743 0.12880057 6.68885166 -1 10 C-1.66 10 -2.32 10 -3 10 C-3.33 11.32 -3.66 12.64 -4 14 C-5.32 14 -6.64 14 -8 14 C-8 14.99 -8 15.98 -8 17 C-8.99 16.67 -9.98 16.34 -11 16 C-9.730624 14.08236785 -8.45944055 12.16593207 -7.1875 10.25 C-6.47980469 9.18265625 -5.77210938 8.1153125 -5.04296875 7.015625 C-1.4489917 1.71055753 -1.4489917 1.71055753 0 0 Z " fill="#045BC7" transform="translate(138,358)"/>
<path d="M0 0 C0.99 0.33 1.98 0.66 3 1 C2.835 1.61875 2.67 2.2375 2.5 2.875 C1.92365356 4.96063386 1.92365356 4.96063386 2 7 C0.78800016 10.93899947 -0.51382915 12.7920918 -4 15 C-4.45356243 8.53673535 -3.59378942 5.39068413 0 0 Z " fill="#2D96E3" transform="translate(133,342)"/>
<path d="M0 0 C1.125 3.75 1.125 3.75 0 6 C0.27942455 7.67654729 0.60828247 9.34608154 1 11 C1.99 8.69 2.98 6.38 4 4 C5.32 4.33 6.64 4.66 8 5 C6.88037801 6.64949657 5.75413155 8.29449838 4.625 9.9375 C3.99851563 10.85402344 3.37203125 11.77054687 2.7265625 12.71484375 C1 15 1 15 -1 16 C-2.22485812 13.55028376 -2.16722808 11.85765539 -2.1875 9.125 C-2.20167969 8.26132812 -2.21585937 7.39765625 -2.23046875 6.5078125 C-1.98859252 3.8758712 -1.32983541 2.26019456 0 0 Z " fill="#268BE0" transform="translate(128,357)"/>
<path d="M0 0 C2.26154119 2.77466398 3.61002109 5.21583392 4.6875 8.625 C5.06455078 9.78902344 5.06455078 9.78902344 5.44921875 10.9765625 C6 13 6 13 6 15 C5.34 15 4.68 15 4 15 C3.67 14.34 3.34 13.68 3 13 C2.67 16.3 2.34 19.6 2 23 C1.67 23 1.34 23 1 23 C-0.06059488 15.31068715 -0.09928082 7.75493514 0 0 Z " fill="#8AD1EC" transform="translate(372,185)"/>
<path d="M0 0 C0.99 0.33 1.98 0.66 3 1 C1.57497833 4.90455937 -0.26652127 8.24835962 -2.5 11.75 C-3.1084375 12.71421875 -3.716875 13.6784375 -4.34375 14.671875 C-6 17 -6 17 -8 18 C-8 16.35 -8 14.7 -8 13 C-7.01 12.67 -6.02 12.34 -5 12 C-4.39184816 10.15302626 -4.39184816 10.15302626 -4 8 C-3.34859204 6.56637928 -2.6603073 5.14898188 -1.9375 3.75 C-1.57527344 3.04359375 -1.21304687 2.3371875 -0.83984375 1.609375 C-0.56269531 1.07828125 -0.28554688 0.5471875 0 0 Z " fill="#6ABCE4" transform="translate(366,296)"/>
<path d="M0 0 C0.99 0 1.98 0 3 0 C3.33 2.97 3.66 5.94 4 9 C4.99 9.33 5.98 9.66 7 10 C7 16.27 7 22.54 7 29 C6.67 29 6.34 29 6 29 C5.85304688 27.33324219 5.85304688 27.33324219 5.703125 25.6328125 C4.94938392 17.89086459 4.15467469 10.9130487 0.8046875 3.78515625 C0 2 0 2 0 0 Z " fill="#65A4DF" transform="translate(304,205)"/>
<path d="M0 0 C4.24232126 2.77725536 8.32701422 5.69152185 12.375 8.75 C12.92027344 9.16121094 13.46554687 9.57242188 14.02734375 9.99609375 C15.35268356 10.9959115 16.67650492 11.99774159 18 13 C17.67 13.66 17.34 14.32 17 15 C15.68127338 14.60348083 14.37002899 14.18201309 13.0625 13.75 C12.33160156 13.51796875 11.60070312 13.2859375 10.84765625 13.046875 C9 12 9 12 8.24609375 9.890625 C8.16488281 9.26671875 8.08367187 8.6428125 8 8 C6.68 7.67 5.36 7.34 4 7 C4 6.34 4 5.68 4 5 C2.68 4.67 1.36 4.34 0 4 C0 2.68 0 1.36 0 0 Z " fill="#69B8E3" transform="translate(327,132)"/>
<path d="M0 0 C1.98 0 3.96 0 6 0 C6.33 0.99 6.66 1.98 7 3 C6.01 3 5.02 3 4 3 C4 4.32 4 5.64 4 7 C1.64561267 8.42944945 0.51967567 9.08661261 -2.25 8.625 C-2.8275 8.41875 -3.405 8.2125 -4 8 C-2.95833333 6.20963542 -1.91666667 4.41927083 -0.875 2.62890625 C0.07886962 1.16134961 0.07886962 1.16134961 0 0 Z " fill="#0D6BCF" transform="translate(346,232)"/>
<path d="M0 0 C2.31 0 4.62 0 7 0 C7 0.99 7 1.98 7 3 C5.865625 3.309375 4.73125 3.61875 3.5625 3.9375 C0.21224901 4.62924531 0.21224901 4.62924531 -1 6 C-2.51928038 6.07179964 -4.04167482 6.08392007 -5.5625 6.0625 C-6.38878906 6.05347656 -7.21507812 6.04445313 -8.06640625 6.03515625 C-8.70449219 6.02355469 -9.34257812 6.01195312 -10 6 C-10.33 5.34 -10.66 4.68 -11 4 C-8.03 4 -5.06 4 -2 4 C-1.34 2.68 -0.68 1.36 0 0 Z " fill="#1575D2" transform="translate(283,354)"/>
<path d="M0 0 C7.54673035 0.40277493 14.73973247 0.82191974 22 3 C22 3.33 22 3.66 22 4 C21.030625 3.979375 20.06125 3.95875 19.0625 3.9375 C16.12534105 3.64381501 16.12534105 3.64381501 15 5 C15.99 5.33 16.98 5.66 18 6 C16.02 6 14.04 6 12 6 C12 5.34 12 4.68 12 4 C6.06 3.01 6.06 3.01 0 2 C0 1.34 0 0.68 0 0 Z " fill="#75C6E9" transform="translate(272,114)"/>
<path d="M0 0 C1 3 1 3 0 6 C-3 8 -3 8 -6 8 C-6 8.66 -6 9.32 -6 10 C-6.66 10 -7.32 10 -8 10 C-8.309375 10.78375 -8.61875 11.5675 -8.9375 12.375 C-10 15 -10 15 -11 17 C-11.99 16.67 -12.98 16.34 -14 16 C-13.21654285 14.82780457 -12.42297164 13.66236332 -11.625 12.5 C-11.18414062 11.8503125 -10.74328125 11.200625 -10.2890625 10.53125 C-9.65097656 9.77328125 -9.65097656 9.77328125 -9 9 C-8.34 9 -7.68 9 -7 9 C-7 8.34 -7 7.68 -7 7 C-6.34 7 -5.68 7 -5 7 C-4.731875 6.401875 -4.46375 5.80375 -4.1875 5.1875 C-3.01506533 3.02775192 -1.80630718 1.64209744 0 0 Z " fill="#6BBBE3" transform="translate(158,302)"/>
<path d="M0 0 C-5.96369633 4.01526847 -12.38613033 3.55499164 -19.375 3.6875 C-20.58800781 3.72166016 -21.80101562 3.75582031 -23.05078125 3.79101562 C-26.03376181 3.87322375 -29.01645842 3.94246526 -32 4 C-32 3.67 -32 3.34 -32 3 C-31.16976318 2.92483154 -31.16976318 2.92483154 -30.32275391 2.84814453 C-18.02861499 1.82904277 -18.02861499 1.82904277 -5.875 -0.1875 C-2 -1 -2 -1 0 0 Z " fill="#8EDAED" transform="translate(306,270)"/>
<path d="M0 0 C0.33 0.99 0.66 1.98 1 3 C-0.65 3.66 -2.3 4.32 -4 5 C-3.67 6.98 -3.34 8.96 -3 11 C-4.32 11 -5.64 11 -7 11 C-7 7.7 -7 4.4 -7 1 C-5.68 1.33 -4.36 1.66 -3 2 C-2.01 1.34 -1.02 0.68 0 0 Z " fill="#0350C3" transform="translate(136,296)"/>
<path d="M0 0 C1.65 0 3.3 0 5 0 C5 0.66 5 1.32 5 2 C6.65 1.34 8.3 0.68 10 0 C10.33 0.66 10.66 1.32 11 2 C10.06553465 4.03144641 9.06775224 6.03533587 8 8 C6.85073734 7.04578192 5.70569459 6.08647955 4.5625 5.125 C3.92441406 4.59132812 3.28632813 4.05765625 2.62890625 3.5078125 C1 2 1 2 0 0 Z " fill="#3390E0" transform="translate(293,192)"/>
<path d="M0 0 C1.99954746 -0.04254356 4.00041636 -0.04080783 6 0 C7 1 7 1 7.09765625 2.84765625 C7.06510417 4.8984375 7.03255208 6.94921875 7 9 C5.35 8.67 3.7 8.34 2 8 C2.04125 7.236875 2.0825 6.47375 2.125 5.6875 C2.22080824 2.77281584 2.22080824 2.77281584 0 0 Z " fill="#075DC6" transform="translate(190,179)"/>
<path d="M0 0 C0.66 0.33 1.32 0.66 2 1 C2.0809313 3.60478883 2.14045434 6.20706653 2.1875 8.8125 C2.21263672 9.55048828 2.23777344 10.28847656 2.26367188 11.04882812 C2.33834499 16.54974762 2.33834499 16.54974762 0.48828125 19.01171875 C-0.24841797 19.50091797 -0.24841797 19.50091797 -1 20 C-1.12910853 13.25766581 -0.797837 6.69613196 0 0 Z " fill="#156AC5" transform="translate(311,224)"/>
<path d="M0 0 C0 0.33 0 0.66 0 1 C-8.35104207 1.68271293 -16.61988971 2.15392039 -25 2 C-19.20993751 -3.79006249 -7.42094255 -0.97323837 0 0 Z " fill="#2461B7" transform="translate(177,361)"/>
<path d="M0 0 C-1.75 2.0625 -1.75 2.0625 -4 4 C-6.25 3.75 -6.25 3.75 -8 3 C-8.33 3.66 -8.66 4.32 -9 5 C-9 4.01 -9 3.02 -9 2 C-12.3 2 -15.6 2 -19 2 C-19 1.67 -19 1.34 -19 1 C-12.63849395 0.34513908 -6.39628979 -0.12068471 0 0 Z " fill="#4EC3E7" transform="translate(291,273)"/>
<path d="M0 0 C0.33 0.66 0.66 1.32 1 2 C1.66 2 2.32 2 3 2 C3 2.66 3 3.32 3 4 C3.66 4 4.32 4 5 4 C6.625 6.5 6.625 6.5 8 9 C7.01 9.495 7.01 9.495 6 10 C6 9.34 6 8.68 6 8 C4.02 8.33 2.04 8.66 0 9 C0.061875 8.236875 0.12375 7.47375 0.1875 6.6875 C0.25898085 3.95474688 0.25898085 3.95474688 -1.5 2.1875 C-1.995 1.795625 -2.49 1.40375 -3 1 C-2.01 0.67 -1.02 0.34 0 0 Z " fill="#4AA7DF" transform="translate(346,147)"/>
<path d="M0 0 C1.60294922 0.01353516 1.60294922 0.01353516 3.23828125 0.02734375 C4.04652344 0.03894531 4.85476562 0.05054688 5.6875 0.0625 C4.11452086 1.92812642 3.23239783 2.96488443 0.78637695 3.40307617 C0.08988037 3.38736572 -0.60661621 3.37165527 -1.32421875 3.35546875 C-2.08154297 3.34580078 -2.83886719 3.33613281 -3.61914062 3.32617188 C-4.40482422 3.30103516 -5.19050781 3.27589844 -6 3.25 C-7.19592773 3.22969727 -7.19592773 3.22969727 -8.41601562 3.20898438 C-10.38179967 3.17367089 -12.34723582 3.11986447 -14.3125 3.0625 C-9.64620504 -0.0483633 -5.51601549 -0.06061555 0 0 Z " fill="#65C7EA" transform="translate(212.3125,276.9375)"/>
<path d="M0 0 C0.66 0.33 1.32 0.66 2 1 C1.3503125 1.5878125 1.3503125 1.5878125 0.6875 2.1875 C-1.1288179 3.97898715 -1.1288179 3.97898715 -2.3125 6.5 C-4.42187842 9.62500507 -6.57420042 10.55355129 -10 12 C-8.43873668 8.16780823 -5.97133075 5.82638778 -3 3 C-2.401875 2.401875 -1.80375 1.80375 -1.1875 1.1875 C-0.795625 0.795625 -0.40375 0.40375 0 0 Z " fill="#0967CA" transform="translate(150,346)"/>
<path d="M0 0 C1.65 0 3.3 0 5 0 C6.125 3.75 6.125 3.75 5 6 C3.35 6 1.7 6 0 6 C-1.125 2.25 -1.125 2.25 0 0 Z " fill="#2186DA" transform="translate(310,344)"/>
<path d="M0 0 C1.60590933 4.80680345 0.0336293 8.53093562 -2 13 C-4.1875 15.5625 -4.1875 15.5625 -6 17 C-4.33846988 11.14340094 -2.52958084 5.5409866 0 0 Z " fill="#6FB2E3" transform="translate(135,332)"/>
<path d="M0 0 C0.66 0 1.32 0 2 0 C1.72510809 4.03174806 1.46508424 5.56894631 -1.5625 8.375 C-2.366875 8.91125 -3.17125 9.4475 -4 10 C-4.20140476 6.37471432 -3.85776765 4.13498292 -2 1 C-1.34 1.33 -0.68 1.66 0 2 C0 1.34 0 0.68 0 0 Z " fill="#52AFE5" transform="translate(356,311)"/>
<path d="M0 0 C0.99 1.32 1.98 2.64 3 4 C1.35 6.31 -0.3 8.62 -2 11 C-4 8 -4 8 -4 5 C-3.34 5 -2.68 5 -2 5 C-1.34 3.35 -0.68 1.7 0 0 Z " fill="#3F8AD7" transform="translate(361,220)"/>
<path d="M0 0 C0.33 0.99 0.66 1.98 1 3 C-1.91708924 4.98362069 -3.12380904 4.9876191 -6.75 4.625 C-7.8225 4.41875 -8.895 4.2125 -10 4 C-7.93026888 -0.13946223 -4.25879356 -0.23659964 0 0 Z " fill="#0753BB" transform="translate(150,361)"/>
<path d="M0 0 C1.65 0 3.3 0 5 0 C3.37660195 1.70884005 1.70680947 3.37446717 0 5 C-0.66 5 -1.32 5 -2 5 C-2 5.66 -2 6.32 -2 7 C-3.65 7.66 -5.3 8.32 -7 9 C-6.34 7.35 -5.68 5.7 -5 4 C-3.68 4 -2.36 4 -1 4 C-0.67 2.68 -0.34 1.36 0 0 Z " fill="#6EB6E3" transform="translate(338,331)"/>
<path d="M0 0 C2 3 2 3 2 7 C1.01 7.33 0.02 7.66 -1 8 C-2.5 6.75 -2.5 6.75 -4 5 C-4 3.68 -4 2.36 -4 1 C-2.68 0.67 -1.36 0.34 0 0 Z " fill="#1971CF" transform="translate(356,225)"/>
<path d="M0 0 C0.33 1.32 0.66 2.64 1 4 C4.3 3.67 7.6 3.34 11 3 C8.31907309 5.68092691 6.60832637 5.38670257 2.875 5.625 C1.77929688 5.69976562 0.68359375 5.77453125 -0.4453125 5.8515625 C-1.28835938 5.90054687 -2.13140625 5.94953125 -3 6 C-1.125 1.125 -1.125 1.125 0 0 Z " fill="#709DCD" transform="translate(303,253)"/>
<path d="M0 0 C0.66 0.33 1.32 0.66 2 1 C0.71937515 2.7074998 -0.61767557 4.37373596 -2 6 C-2.66 6 -3.32 6 -4 6 C-4.33 6.66 -4.66 7.32 -5 8 C-5.66 6.35 -6.32 4.7 -7 3 C-4.69631264 1.93347808 -2.35981813 0.93578995 0 0 Z " fill="#2891E5" transform="translate(142,352)"/>
<path d="M0 0 C0.66 0.33 1.32 0.66 2 1 C1.5205537 5.21912747 0.83374881 7.79663178 -2 11 C-2.33 8.03 -2.66 5.06 -3 2 C-2.34 2 -1.68 2 -1 2 C-0.67 1.34 -0.34 0.68 0 0 Z " fill="#4692D4" transform="translate(369,206)"/>
<path d="M0 0 C0.33 0.66 0.66 1.32 1 2 C1.66 2 2.32 2 3 2 C4.2890625 3.75 4.2890625 3.75 5.625 6 C6.07101562 6.7425 6.51703125 7.485 6.9765625 8.25 C7.31429688 8.8275 7.65203125 9.405 8 10 C7.01 10.33 6.02 10.66 5 11 C5 10.34 5 9.68 5 9 C4.34 9 3.68 9 3 9 C3 7.68 3 6.36 3 5 C2.01 5 1.02 5 0 5 C0 3.35 0 1.7 0 0 Z " fill="#6DB4E2" transform="translate(354,156)"/>
<path d="M0 0 C0.99 0 1.98 0 3 0 C3 0.66 3 1.32 3 2 C4.65 2.33 6.3 2.66 8 3 C8.33 3.99 8.66 4.98 9 6 C8.4225 5.814375 7.845 5.62875 7.25 5.4375 C4.79307475 4.95976454 3.35602466 5.24270636 1 6 C0.67 4.02 0.34 2.04 0 0 Z " fill="#33A4EA" transform="translate(328,137)"/>
<path d="M0 0 C0.33 0 0.66 0 1 0 C1 1.98 1 3.96 1 6 C2.32 6 3.64 6 5 6 C4.1875 8.4375 4.1875 8.4375 3 11 C2.01 11.33 1.02 11.66 0 12 C0 8.04 0 4.08 0 0 Z " fill="#3C6CBA" transform="translate(128,301)"/>
<path d="M0 0 C0.66 0.33 1.32 0.66 2 1 C1.67 1.66 1.34 2.32 1 3 C0.01 3 -0.98 3 -2 3 C-2 3.66 -2 4.32 -2 5 C-4.31 5.66 -6.62 6.32 -9 7 C-9.66 6.34 -10.32 5.68 -11 5 C-9.21289414 4.13633178 -7.4201535 3.28431406 -5.625 2.4375 C-4.62726563 1.96183594 -3.62953125 1.48617188 -2.6015625 0.99609375 C-1.74304688 0.66738281 -0.88453125 0.33867187 0 0 Z " fill="#75C8E8" transform="translate(190,282)"/>
<path d="M0 0 C0.66 0 1.32 0 2 0 C1.00956295 4.83628305 0.04301154 9.47618873 -2 14 C-2.33 14 -2.66 14 -3 14 C-2.88512252 12.41590006 -2.75765492 10.83271037 -2.625 9.25 C-2.55539062 8.36828125 -2.48578125 7.4865625 -2.4140625 6.578125 C-2.00149945 4.00933618 -1.28839043 2.24158985 0 0 Z " fill="#7FD1EA" transform="translate(377,272)"/>
<path d="M0 0 C0.66 0.33 1.32 0.66 2 1 C2 1.99 2 2.98 2 4 C1.360625 4.12375 0.72125 4.2475 0.0625 4.375 C-0.9584375 4.684375 -0.9584375 4.684375 -2 5 C-2.33 5.66 -2.66 6.32 -3 7 C-4.32 6.34 -5.64 5.68 -7 5 C-7 4.67 -7 4.34 -7 4 C-5.824375 3.8453125 -5.824375 3.8453125 -4.625 3.6875 C-1.66954819 3.22404978 -1.66954819 3.22404978 0 0 Z " fill="#43C4EE" transform="translate(342,256)"/>
<path d="M0 0 C0.99 0 1.98 0 3 0 C5 3 5 3 5 6 C2.03 5.505 2.03 5.505 -1 5 C-0.67 3.35 -0.34 1.7 0 0 Z " fill="#2072D0" transform="translate(337,240)"/>
<path d="M0 0 C1.4391134 0.28359887 2.87625518 0.57721399 4.3125 0.875 C5.11300781 1.03742188 5.91351563 1.19984375 6.73828125 1.3671875 C9 2 9 2 12 4 C7.06729471 5.6442351 4.45975807 4.18615592 0 2 C0 1.34 0 0.68 0 0 Z " fill="#79C2E9" transform="translate(294,118)"/>
<path d="M0 0 C-2.475 3.465 -2.475 3.465 -5 7 C-7 4 -7 4 -7 1 C-4.53721199 -0.231394 -2.7204945 -0.07159196 0 0 Z " fill="#3D72C9" transform="translate(139,300)"/>
<path d="M0 0 C-0.33 0.99 -0.66 1.98 -1 3 C-1.66 2.67 -2.32 2.34 -3 2 C-3.33 2.99 -3.66 3.98 -4 5 C-4.99 5.66 -5.98 6.32 -7 7 C-7.66 6.01 -8.32 5.02 -9 4 C-4.5 0 -4.5 0 0 0 Z " fill="#034DC2" transform="translate(145,288)"/>
<path d="M0 0 C0.33 0 0.66 0 1 0 C2.14507772 5.19689119 2.14507772 5.19689119 2 8 C-0.4375 11 -0.4375 11 -3 13 C-2.68991116 11.39536551 -2.37683713 9.79130769 -2.0625 8.1875 C-1.88847656 7.29417969 -1.71445312 6.40085938 -1.53515625 5.48046875 C-1 3 -1 3 0 0 Z " fill="#8ADCF2" transform="translate(372,211)"/>
<path d="M0 0 C0.33 0 0.66 0 1 0 C1.33 4.62 1.66 9.24 2 14 C1.34 14 0.68 14 0 14 C-0.66 11.36 -1.32 8.72 -2 6 C-1.34 6 -0.68 6 0 6 C0 4.02 0 2.04 0 0 Z " fill="#2384CE" transform="translate(371,185)"/>
<path d="M0 0 C1.32 0.66 2.64 1.32 4 2 C3.67 3.98 3.34 5.96 3 8 C2.34 8 1.68 8 1 8 C1 7.34 1 6.68 1 6 C0.01 5.67 -0.98 5.34 -2 5 C-1.34 4.67 -0.68 4.34 0 4 C-0.33 3.01 -0.66 2.02 -1 1 C-0.67 0.67 -0.34 0.34 0 0 Z " fill="#2386D8" transform="translate(292,184)"/>
<path d="M0 0 C-1.12073862 0.83905565 -2.24674547 1.67107831 -3.375 2.5 C-4.00148437 2.9640625 -4.62796875 3.428125 -5.2734375 3.90625 C-7 5 -7 5 -9 5 C-8.75 3.125 -8.75 3.125 -8 1 C-4.99629127 -1.17509943 -3.43900285 -1.00214129 0 0 Z " fill="#4A7DC8" transform="translate(164,279)"/>
<path d="M0 0 C1.4540625 0.0309375 1.4540625 0.0309375 2.9375 0.0625 C2.9375 0.7225 2.9375 1.3825 2.9375 2.0625 C-0.58309568 3.23603189 -3.368993 3.26396402 -7.0625 3.0625 C-7.7225 2.4025 -8.3825 1.7425 -9.0625 1.0625 C-7.8559375 1.0934375 -7.8559375 1.0934375 -6.625 1.125 C-3.4084517 1.0465476 -3.39792468 0.0693454 0 0 Z " fill="#165AB6" transform="translate(194.0625,262.9375)"/>
<path d="M0 0 C1.32 0.99 2.64 1.98 4 3 C1.69 4.65 -0.62 6.3 -3 8 C-3.99 6.68 -4.98 5.36 -6 4 C-4.02 4 -2.04 4 0 4 C0 2.68 0 1.36 0 0 Z " fill="#4D8FD4" transform="translate(346,237)"/>
<path d="M0 0 C0.33 0.99 0.66 1.98 1 3 C2.31647119 3.69937532 3.65022151 4.36729133 5 5 C5.33 5.66 5.66 6.32 6 7 C2 5.66666667 -2 4.33333333 -6 3 C-3 1 -3 1 0 0 Z " fill="#68A9DB" transform="translate(279,180)"/>
<path d="M0 0 C2.31 0 4.62 0 7 0 C7 0.99 7 1.98 7 3 C4.69 3 2.38 3 0 3 C0 2.01 0 1.02 0 0 Z " fill="#0B51BA" transform="translate(177,266)"/>
<path d="M0 0 C-1 3 -1 3 -3.9375 4.6875 C-7 6 -7 6 -9 6 C-9 4 -9 4 -7.75 2.4375 C-5.28409638 0.41193631 -3.14665081 0 0 0 Z " fill="#4A87CB" transform="translate(337,246)"/>
<path d="M0 0 C1.98 0 3.96 0 6 0 C6.33 1.65 6.66 3.3 7 5 C6.05125 4.649375 5.1025 4.29875 4.125 3.9375 C1.12939828 2.64973223 1.12939828 2.64973223 -1 4 C-0.67 2.68 -0.34 1.36 0 0 Z " fill="#41BAE9" transform="translate(321,265)"/>
<path d="M0 0 C0.66 0.33 1.32 0.66 2 1 C1.67 1.66 1.34 2.32 1 3 C0.34 3 -0.32 3 -1 3 C-1.4640625 4.175625 -1.4640625 4.175625 -1.9375 5.375 C-3 8 -3 8 -4 10 C-4.99 9.67 -5.98 9.34 -7 9 C-6.21654285 7.82780457 -5.42297164 6.66236332 -4.625 5.5 C-4.18414062 4.8503125 -3.74328125 4.200625 -3.2890625 3.53125 C-2.65097656 2.77328125 -2.65097656 2.77328125 -2 2 C-1.34 2 -0.68 2 0 2 C0 1.34 0 0.68 0 0 Z " fill="#7BBCE2" transform="translate(151,309)"/>
<path d="M0 0 C2.125 0.9375 2.125 0.9375 4 2 C2.68 2.33 1.36 2.66 0 3 C0.33 3.99 0.66 4.98 1 6 C-0.32 5.67 -1.64 5.34 -3 5 C-2.625 3.0625 -2.625 3.0625 -2 1 C-1.34 0.67 -0.68 0.34 0 0 Z " fill="#0A5EC8" transform="translate(318,249)"/>
<path d="M0 0 C-0.99 1.485 -0.99 1.485 -2 3 C-4.625 3.1875 -4.625 3.1875 -7 3 C-6.67 2.01 -6.34 1.02 -6 0 C-3.50907189 -1.24546405 -2.58919267 -0.7767578 0 0 Z " fill="#5CB9E0" transform="translate(182,289)"/>
<path d="M0 0 C1.32 0.33 2.64 0.66 4 1 C4 1.66 4 2.32 4 3 C2.46875 4.2890625 2.46875 4.2890625 0.5 5.625 C-0.1496875 6.07101563 -0.799375 6.51703125 -1.46875 6.9765625 C-1.9740625 7.31429687 -2.479375 7.65203125 -3 8 C-3 6.68 -3 5.36 -3 4 C-2.01 4 -1.02 4 0 4 C0 2.68 0 1.36 0 0 Z " fill="#5191D4" transform="translate(353,231)"/>
<path d="M0 0 C0.99 0 1.98 0 3 0 C3.66 3.96 4.32 7.92 5 12 C2.65085508 9.65085508 2.26859643 8.04320554 1.375 4.875 C1.11460937 3.96492187 0.85421875 3.05484375 0.5859375 2.1171875 C0.39257812 1.41851562 0.19921875 0.71984375 0 0 Z " fill="#7BB5DF" transform="translate(304,205)"/>
<path d="M0 0 C3.125 -0.1875 3.125 -0.1875 6 0 C6.33 0.66 6.66 1.32 7 2 C2.545 2.495 2.545 2.495 -2 3 C-1.34 2.01 -0.68 1.02 0 0 Z " fill="#4288CA" transform="translate(284,357)"/>
<path d="M0 0 C0.66 0 1.32 0 2 0 C2 0.99 2 1.98 2 3 C2.66 3 3.32 3 4 3 C4 3.66 4 4.32 4 5 C2.35 5 0.7 5 -1 5 C-1.33 4.01 -1.66 3.02 -2 2 C-1.34 1.34 -0.68 0.68 0 0 Z " fill="#268CD9" transform="translate(323,338)"/>
<path d="M0 0 C0.66 0 1.32 0 2 0 C2.33 2.31 2.66 4.62 3 7 C2.01 7 1.02 7 0 7 C0 4.69 0 2.38 0 0 Z " fill="#064FC7" transform="translate(194,256)"/>
<path d="M0 0 C1.65 0 3.3 0 5 0 C5.66 1.65 6.32 3.3 7 5 C4.11424181 4.60196439 3.17810487 4.20990931 1.25 1.9375 C0.8375 1.298125 0.425 0.65875 0 0 Z " fill="#5DA5DC" transform="translate(293,192)"/>
<path d="M0 0 C0.99 0.33 1.98 0.66 3 1 C2.67 1.99 2.34 2.98 2 4 C2.66 4.33 3.32 4.66 4 5 C3.67 5.66 3.34 6.32 3 7 C1.02 5.68 -0.96 4.36 -3 3 C-2.01 2.01 -1.02 1.02 0 0 Z " fill="#67ABE4" transform="translate(289,185)"/>
<path d="M0 0 C0.99 0.33 1.98 0.66 3 1 C3 1.66 3 2.32 3 3 C4.32 3.33 5.64 3.66 7 4 C4 6 4 6 1.8125 5.625 C1.214375 5.41875 0.61625 5.2125 0 5 C0.66 4.67 1.32 4.34 2 4 C2 3.34 2 2.68 2 2 C1.34 2 0.68 2 0 2 C0 1.34 0 0.68 0 0 Z " fill="#37ABE6" transform="translate(304,122)"/>
<path d="M0 0 C0.66 0 1.32 0 2 0 C2.33 0.99 2.66 1.98 3 3 C1.68 3 0.36 3 -1 3 C-1 3.99 -1 4.98 -1 6 C-1.99 5.67 -2.98 5.34 -4 5 C-2.71937515 3.2925002 -1.38232443 1.62626404 0 0 Z " fill="#0956BE" transform="translate(131,369)"/>
<path d="M0 0 C0.33 0 0.66 0 1 0 C1 1.98 1 3.96 1 6 C-0.65 6 -2.3 6 -4 6 C-3.34 5.67 -2.68 5.34 -2 5 C-1.6278958 3.67696283 -1.29369827 2.34262065 -1 1 C-0.67 0.67 -0.34 0.34 0 0 Z " fill="#2060C0" transform="translate(139,294)"/>
<path d="M0 0 C0.33 0 0.66 0 1 0 C1.36923077 5.53846154 1.36923077 5.53846154 -0.5 7.875 C-1.2425 8.431875 -1.2425 8.431875 -2 9 C-2.66 8.34 -3.32 7.68 -4 7 C-3.67 6.34 -3.34 5.68 -3 5 C-2.01 5 -1.02 5 0 5 C0 3.35 0 1.7 0 0 Z " fill="#286FC9" transform="translate(308,244)"/>
<path d="M0 0 C2.31 0 4.62 0 7 0 C7 0.66 7 1.32 7 2 C4.69 2.66 2.38 3.32 0 4 C0 2.68 0 1.36 0 0 Z " fill="#1D7CD8" transform="translate(358,208)"/>
<path d="M0 0 C0.33 0.66 0.66 1.32 1 2 C1.66 2 2.32 2 3 2 C3 2.66 3 3.32 3 4 C3.66 4 4.32 4 5 4 C4.67 4.66 4.34 5.32 4 6 C0.535 4.02 0.535 4.02 -3 2 C-2.01 1.34 -1.02 0.68 0 0 Z " fill="#67B5DE" transform="translate(346,147)"/>
</svg>
